<?xml version="1.0" encoding="utf-8"?>
<!-- Generator: Adobe Illustrator 21.0.0, SVG Export Plug-In . SVG Version: 6.00 Build 0)  -->
<svg version="1.1"
	 id="Layer_1" xmlns:cc="http://creativecommons.org/ns#" xmlns:dc="http://purl.org/dc/elements/1.1/" xmlns:inkscape="http://www.inkscape.org/namespaces/inkscape" xmlns:rdf="http://www.w3.org/1999/02/22-rdf-syntax-ns#" xmlns:sodipodi="http://sodipodi.sourceforge.net/DTD/sodipodi-0.dtd" xmlns:svg="http://www.w3.org/2000/svg"
	 xmlns="http://www.w3.org/2000/svg" xmlns:xlink="http://www.w3.org/1999/xlink" x="0px" y="0px" viewBox="0 0 74 92.5"
	 style="enable-background:new 0 0 74 92.5;" xml:space="preserve">
<g transform="translate(0,-978.36218)">
	<path d="M37,1050.4c11.4-7,22.1-14.3,32-20.2v-21.8c-10.7,6.7-21.3,13.5-32,20.2c-10.7-6.7-21.3-13.5-32-20.2v21.8
		C16.1,1037.2,27.5,1044.3,37,1050.4z M37,1022.4c11.4-7,22.1-14.3,32-20.2v-21.8c-10.7,6.7-21.3,13.5-32,20.2
		c-10.7-6.7-21.3-13.5-32-20.2v21.8C16.1,1009.2,27.5,1016.3,37,1022.4z"/>
</g>
</svg>
